PathFileType	4	(X/Y/Z)	pose_F01_0-96.trc
DataRate	CameraRate	NumFrames	NumMarkers	Units	OrigDataRate	OrigDataStartFrame	OrigNumFrames
30	30	7	21	m	30	36	96
Frame#	Time	CHip			RHip			RKnee			RAnkle			RBigToe			RSmallToe			RHeel			LHip			LKnee			LAnkle			LBigToe			LSmallToe			LHeel			Neck			Nose			RShoulder			RElbow			RWrist			LShoulder			LElbow			LWrist			
		X1	Y1	Z1	X2	Y2	Z2	X3	Y3	Z3	X4	Y4	Z4	X5	Y5	Z5	X6	Y6	Z6	X7	Y7	Z7	X8	Y8	Z8	X9	Y9	Z9	X10	Y10	Z10	X11	Y11	Z11	X12	Y12	Z12	X13	Y13	Z13	X14	Y14	Z14	X15	Y15	Z15	X16	Y16	Z16	X17	Y17	Z17	X18	Y18	Z18	X19	Y19	Z19	X20	Y20	Z20	X21	Y21	Z21	
36	1.2	-0.3258502654332642	1.8294883809140476	-0.5334648021039684	-0.3331525241591227	1.8273669870665052	-0.47290697367567686	-0.35614342904573243	1.6964633397783964	-0.46630687630234685	-0.37410529480035504	1.56906838722095	-0.44521291398034485	-0.23320361461876582	1.5258714855737603	-0.4397652411303089	-0.3493347544260871	1.5441861386901337	-0.40803576657782636	-0.38546323006579153	1.5624056037435488	-0.4509915012230233	-0.31206710800197207	1.8294133815425246	-0.5950256659352811	-0.31399379291742935	1.7021567027521152	-0.6030503934156864													-0.326355283548114	1.9784465519998464	-0.56179964773964	-0.2861625956442401	2.0402767249709433	-0.5817366494161602	-0.33970646256163706	1.975442063171677	-0.4793944130782479	-0.336509672691122	1.892376296403777	-0.44146735805647247	-0.3143397331513077	1.8210024018435393	-0.42144364946399543	-0.31111731840421153	1.9798047828865621	-0.6440256588171941	-1.1387482397734734	1.8297799657286833	0.14553520942507764	-0.28302634035468077	1.9605514609930883	-0.6776550360298279
37	1.2333333333333334	-0.3299070144413525	1.8237724210880044	-0.519895641017428	-0.344231774574573	1.8205771122485437	-0.4559287714027118	-0.3571886707755791	1.6966618734567975	-0.4608444650900696	-0.3745103658498986	1.569782669656176	-0.4442921739550724	-0.23320361461876582	1.5258714855737603	-0.4397652411303089	-0.34941705549979146	1.5443616625527623	-0.40801968858263576	-0.38546323006579153	1.5624056037435488	-0.4509915012230233	-0.3208109866890901	1.8265434640705713	-0.5772137476045719	-0.3120567005887222	1.6999575158743243	-0.587626501626577													-0.3305222677797239	1.9792007108437943	-0.5495321241826804	-0.29649831206139016	2.039608915070627	-0.5625046343221057	-0.3445356540700006	1.975213155691134	-0.46962734131277306	-0.34955426385469623	1.8910425326858884	-0.41806229716249427	-0.32527894076284414	1.8177019586513279	-0.40660291214689553	-0.3175919251165523	1.981510512487549	-0.6296106791881712	-1.1923212323190822	1.832900473993408	0.22582623900015356	-0.2916036148633243	1.9630713523429661	-0.6495479322879733
38	1.2666666666666666	-0.33910304776437283	1.829134203709681	-0.5066754117468197	-0.346146937052848	1.8261138032817577	-0.454416331223464	-0.3591212795989205	1.6967568796641943	-0.45860982367368924	-0.3749154368994422	1.5704969520914018	-0.44337143392979994	-0.23320361461876582	1.5258714855737603	-0.4397652411303089	-0.34938937410024046	1.5466212301181417	-0.40843969515212536	-0.38546323006579153	1.5624056037435488	-0.4509915012230233	-0.3240382988604078	1.8317281694883074	-0.5701407380216664	-0.3112058462893821	1.703795320925855	-0.5756084463422634													-0.3365722339020564	1.9788596071719007	-0.5346966205381937	-0.2973942916240711	2.040430109263895	-0.5487642251140573	-0.35004276983447646	1.9743057899280287	-0.4545243369618499	-0.34968810150894625	1.892732844207613	-0.4180430745998157	-0.33621814837438063	1.8144015154591164	-0.39176217482979564	-0.31988974910821216	1.9826957785482975	-0.6192905832433455	-1.2115676935944197	1.8329519930556712	0.2554822203196941	-0.3046113384099981	1.962857168057975	-0.6285727722721882
39	1.3	-0.3421483314875316	1.8259757023106045	-0.49883817592026153	-0.3503288173171016	1.8205251707174948	-0.4495173267890356	-0.36299958754810174	1.6975105768245475	-0.44564503080383283	-0.3753205079489857	1.5712112345266278	-0.4424506939045275	-0.23320361461876582	1.5258714855737603	-0.4397652411303089	-0.3492741452564872	1.5455998671851892	-0.4088027169891606	-0.38546323006579153	1.5624056037435488	-0.4509915012230233	-0.3323158896895193	1.83013321737332	-0.553022580976247	-0.32211994380453995	1.706139773944593	-0.5473318607506256													-0.3414856062143636	1.978009296715076	-0.5245947410861461	-0.30949884563890945	2.0396582801024237	-0.5275920201850328	-0.3554929398922007	1.974817232619641	-0.4397898876960458	-0.3629650826728985	1.8893662525796258	-0.39450764185039805	-0.358283254771776	1.8160074722096353	-0.36321016431686515	-0.32720413061380205	1.9829535590900251	-0.6075529787132902	-1.2355230043152416	1.8370240969394138	0.2912250165001919	-0.31112941399883415	1.9650677278649837	-0.6055337573922213
40	1.3333333333333333	-0.3421296769830598	1.8286922896409252	-0.49892332972381354	-0.3550017338134524	1.823039461351269	-0.44028251622373293	-0.36718906222766	1.6990764157209877	-0.4413749013719843	-0.37572557899852926	1.5719255169618536	-0.4415299538792551	-0.23320361461876582	1.5258714855737603	-0.4397652411303089	-0.3494966030445308	1.5470755622263428	-0.40867912630648423	-0.38546323006579153	1.5624056037435488	-0.4509915012230233	-0.3313565639358993	1.8302843756659306	-0.5498647576580205	-0.3326308010577039	1.7030509686825506	-0.5360903330980599													-0.34447720139123617	1.9789591825703223	-0.5176365094349741	-0.30949728841093227	2.0394070305779355	-0.5193363319896769	-0.3583751399124229	1.9717958122876915	-0.4319844610138317	-0.36379974594645376	1.8907042700228405	-0.38933040182325057	-0.361159369863657	1.814655380437559	-0.3555763044342893	-0.3284756889346399	1.9832098653727077	-0.6026189346435586	-1.2491922270159985	1.845035825064084	0.3127947306397395	-0.296171329577456	1.9653720189743287	-0.5929749269846383
41	1.3666666666666667	-0.34295170939468017	1.8293113722153143	-0.493876637867323	-0.35892949848694816	1.8264433653638588	-0.43632994074201514	-0.3691487259171442	1.6992480959087375	-0.43926679748495345	-0.37613065004807283	1.5726397993970795	-0.44060921385398266	-0.23320361461876582	1.5258714855737603	-0.4397652411303089	-0.3497190608325744	1.5485512572674962	-0.40855553562380786	-0.38546323006579153	1.5624056037435488	-0.4509915012230233	-0.33331235106066504	1.8327695547514338	-0.5479172475011496	-0.3370224099561191	1.7048347471621559	-0.5315498794303615													-0.34856272604391764	1.9802624919174274	-0.5137419462011015	-0.3115124214221403	2.0378210800733028	-0.5165015185362819	-0.36534009630699765	1.9748961030967467	-0.4296884932711223	-0.3669188942263	1.8920358633058456	-0.39080025614631786	-0.3650167219713745	1.8160093899527265	-0.3516032649227931	-0.32740102070212634	1.984045766597199	-0.5996250654912846	-1.2765571960871258	1.8522239576726314	0.35789495714802216	-0.29404473402189446	1.9677971206034677	-0.5871471423288523
42	1.4	-0.3450427725482294	1.8276754681793899	-0.4914942427434109	-0.35958809649697526	1.825007120218556	-0.43093148319375807	-0.3690949940878438	1.6981596210892553	-0.4391595041935493	-0.37653572109761635	1.5733540818323055	-0.43968847382871024	-0.23320361461876582	1.5258714855737603	-0.4397652411303089	-0.3497111814503825	1.548400615687805	-0.40857041393539956	-0.38546323006579153	1.5624056037435488	-0.4509915012230233	-0.33221181170042635	1.8311192510952659	-0.5446417746638724	-0.34009428079896986	1.7040915198673574	-0.5328848277045346													-0.34941613038090114	1.9797298376492363	-0.5082366325437103	-0.3155429802246616	2.0375720709339027	-0.5121832679775602	-0.3661104683478537	1.9747786903188462	-0.42453325861263974	-0.37075444361711973	1.891543297428079	-0.38658611544344235	-0.36318943819670585	1.8174965544075357	-0.3538966648467087	-0.33304616825031935	1.988692381902484	-0.5930936623572172	-0.28972014215997577	1.937564508563165	-0.6289241223118995	-0.2879855182337642	1.9753064258398252	-0.5698716573934582
